<?xml version="1.0" encoding="UTF-8" standalone="no"?>
<!-- Created with Inkscape (http://www.inkscape.org/) -->

<svg
   width="63.565392mm"
   height="63.565407mm"
   viewBox="0 0 63.565392 63.565407"
   version="1.1"
   id="svg1"
   inkscape:version="1.3 (0e150ed6c4, 2023-07-21)"
   sodipodi:docname="mintLogo.svg"
   xml:space="preserve"
   xmlns:inkscape="http://www.inkscape.org/namespaces/inkscape"
   xmlns:sodipodi="http://sodipodi.sourceforge.net/DTD/sodipodi-0.dtd"
   xmlns="http://www.w3.org/2000/svg"
   xmlns:svg="http://www.w3.org/2000/svg"><sodipodi:namedview
     id="namedview1"
     pagecolor="#ffffff"
     bordercolor="#000000"
     borderopacity="0.25"
     inkscape:showpageshadow="2"
     inkscape:pageopacity="0.0"
     inkscape:pagecheckerboard="0"
     inkscape:deskcolor="#707070"
     inkscape:document-units="mm"
     inkscape:zoom="0.73851711"
     inkscape:cx="324.29851"
     inkscape:cy="519.28384"
     inkscape:window-width="1920"
     inkscape:window-height="1046"
     inkscape:window-x="-11"
     inkscape:window-y="-11"
     inkscape:window-maximized="1"
     inkscape:current-layer="layer1"
     showguides="true" /><defs
     id="defs1" /><g
     inkscape:label="Layer 1"
     inkscape:groupmode="layer"
     id="layer1"
     transform="translate(-24.623427,-169.07211)"><path
       id="path1-4"
       style="fill:#00cf00;fill-opacity:1;stroke:none;stroke-width:0.66452"
       d="m 56.406116,169.07211 a 31.782707,31.782707 0 0 0 -31.78269,31.78271 31.782707,31.782707 0 0 0 31.78269,31.78269 31.782707,31.782707 0 0 0 31.782706,-31.78269 31.782707,31.782707 0 0 0 -31.782706,-31.78271 z m -9.602498,12.86034 c 0.894843,0 3.779319,0.65613 5.626959,1.27985 1.107882,0.37402 3.409616,1.43187 4.278758,1.96666 0.276924,0.1704 0.522315,0.2905 0.545673,0.26716 0.0233,-0.0233 -0.0043,-0.16566 -0.06143,-0.31627 -0.327098,-0.86032 0.04717,-1.46104 0.857802,-1.37669 0.24261,0.0253 1.711424,0.83665 2.8358,1.5666 2.452411,1.59206 5.006782,4.15547 6.524259,6.5476 0.411264,0.64831 0.411123,0.64819 0.412083,-0.0907 6.64e-4,-0.64872 0.03135,-0.76901 0.249655,-0.98728 0.259301,-0.25931 0.645598,-0.31937 0.963234,-0.14937 0.102242,0.0546 0.547918,0.63603 0.990361,1.29152 2.565938,3.80147 4.141475,7.42806 4.807256,11.06608 0.1699,0.92831 0.214732,1.59626 0.222174,3.29148 0.0099,2.29414 -0.0582,2.87936 -0.56043,4.80038 -0.549114,2.10037 -1.246434,3.62841 -2.139373,4.6874 -0.405051,0.48035 -0.405079,0.48037 0.152468,1.47147 0.838796,1.49102 0.908228,1.64822 0.842365,1.91067 -0.140509,0.5598 -0.784876,0.81873 -1.241397,0.49896 -0.118764,-0.0832 -0.495175,-0.65299 -0.83686,-1.26612 -0.341686,-0.61311 -0.659705,-1.11467 -0.706376,-1.11467 -0.04675,0 -0.387383,0.11397 -0.7572,0.25309 -1.116735,0.42035 -2.32553,0.5732 -4.972438,0.62911 -1.875404,0.0395 -2.765898,0.0127 -3.898958,-0.11608 -2.77598,-0.31671 -5.199542,-0.92471 -7.573339,-1.90004 -1.292831,-0.53118 -1.541527,-0.72844 -1.541527,-1.22251 0,-0.31099 0.393879,-0.78295 0.653491,-0.78295 0.315166,0 0.129353,-0.16438 -0.837552,-0.74037 -1.852498,-1.10357 -4.510986,-3.21768 -6.729602,-5.35118 -0.934948,-0.89908 -1.089974,-1.09378 -1.088577,-1.36638 0.0028,-0.56738 0.264286,-0.75765 1.17133,-0.85267 0.442768,-0.0463 0.844682,-0.0869 0.89319,-0.0899 0.04844,-0.003 -0.442979,-0.5124 -1.092022,-1.13219 -1.385413,-1.32299 -2.197066,-2.30258 -3.345744,-4.03804 -1.289301,-1.94794 -2.992733,-5.17271 -2.992733,-5.66507 0,-0.26308 0.361485,-0.68254 0.650752,-0.75514 0.166564,-0.0418 0.604545,0.0751 1.32483,0.35335 0.59185,0.2286 1.095765,0.39598 1.119828,0.37191 0.06157,-0.0614 -1.430954,-2.23019 -2.503036,-3.63695 -1.267428,-1.66308 -2.238598,-2.76305 -3.850888,-4.36221 -1.273641,-1.26324 -1.400382,-1.42128 -1.400382,-1.74689 0,-0.21644 0.07626,-0.43401 0.192294,-0.55011 0.418917,-0.41892 2.993381,-0.82226 5.697355,-0.89249 2.712265,-0.0704 4.243666,0.10381 6.398917,0.728 0.454165,0.13162 0.834544,0.23067 0.845108,0.22013 0.0099,-0.01 -0.207857,-0.40566 -0.485233,-0.87808 -0.399161,-0.67985 -0.492689,-0.92229 -0.448813,-1.16277 0.07159,-0.39272 0.397679,-0.65829 0.80801,-0.65829 z m 1.712539,1.95601 c -0.02287,0.0229 0.256067,0.54619 0.619839,1.16276 0.363786,0.61658 0.661386,1.23162 0.661386,1.36707 0,0.13542 -0.09434,0.36661 -0.20982,0.51337 -0.288447,0.36671 -0.702013,0.34717 -1.631834,-0.0765 -2.886496,-1.31542 -6.536221,-1.83888 -10.005303,-1.43507 -0.806527,0.0938 -1.484067,0.18842 -1.5058,0.21015 -0.02175,0.0217 0.4401,0.55445 1.026414,1.18372 1.921017,2.06168 3.447476,4.01787 5.080949,6.51155 1.885472,2.87836 2.129126,3.44563 1.675456,3.8993 -0.305945,0.30594 -0.749123,0.25088 -1.979366,-0.24484 -0.610251,-0.24592 -1.123387,-0.409 -1.140432,-0.36263 -0.03841,0.10436 0.841858,1.68217 1.578609,2.82961 1.685695,2.62533 3.845692,4.81574 5.858752,5.94151 0.69275,0.3874 0.948817,0.66149 0.948817,1.01577 0,0.63543 -0.324007,0.7995 -1.772289,0.89696 -1.114024,0.075 -1.11401,0.0748 -0.556998,0.57931 3.236924,2.93184 6.040483,4.79907 8.490903,5.65476 1.33925,0.46767 1.670274,0.98904 1.032614,1.6267 -0.299999,0.29999 -0.300126,0.3002 -0.06737,0.38872 0.681395,0.25908 3.521559,0.7826 5.177781,0.95464 0.890084,0.0925 5.390353,-0.0358 6.177758,-0.17616 v 3.5e-4 c 0.65431,-0.11665 1.580673,-0.39553 1.755469,-0.5285 0.05423,-0.0411 -2.54622,-4.05351 -2.962172,-4.57064 -0.0099,-0.0113 -1.473292,-0.0946 -3.253375,-0.18406 -3.684182,-0.18528 -3.718497,-0.19376 -3.773953,-0.93885 -0.02316,-0.31138 0.0209,-0.46634 0.177184,-0.62259 0.249175,-0.24917 0.64105,-0.26045 3.484489,-0.1 1.049968,0.0592 1.932948,0.0839 1.96218,0.0546 0.100687,-0.10063 -1.899255,-2.67028 -3.994081,-5.13178 -1.169027,-1.37363 -1.169126,-1.37357 -4.877993,-1.65277 -2.663458,-0.20052 -3.772526,-0.32059 -3.935024,-0.42547 -0.443756,-0.28648 -0.423901,-1.02406 0.03573,-1.32518 0.247014,-0.16186 0.42215,-0.15942 3.061406,0.0415 1.53969,0.11721 2.81744,0.19488 2.839584,0.17272 0.02217,-0.0221 -0.934765,-1.02295 -2.126345,-2.22386 -2.166492,-2.18348 -2.166196,-2.18325 -4.141058,-2.02777 -2.735734,0.21538 -3.121338,0.20784 -3.411678,-0.0651 -0.287685,-0.27025 -0.31035,-0.77761 -0.04914,-1.10025 0.163133,-0.20147 0.323992,-0.23967 1.342003,-0.32039 0.636106,-0.0504 1.42854,-0.12342 1.760963,-0.16208 0.604389,-0.0705 0.604206,-0.0706 -0.455352,-0.98213 -2.016563,-1.73472 -2.115824,-1.89714 -1.524002,-2.48896 0.344214,-0.34422 0.550136,-0.36698 0.969758,-0.1072 0.344059,0.21305 2.035925,1.66541 3.544576,3.04286 1.01273,0.92467 1.01297,0.92481 1.077238,0.54292 0.0353,-0.21003 0.09702,-0.92874 0.137402,-1.59716 0.04024,-0.6684 0.121446,-1.30649 0.180291,-1.4179 0.257888,-0.48845 0.782251,-0.59378 1.224568,-0.24587 0.241338,0.18985 0.266672,0.27467 0.264073,0.88631 -0.0013,0.37194 -0.0675,1.49109 -0.146639,2.48725 -0.157779,1.98767 -0.517612,1.42783 3.876985,6.03182 0.537242,0.56286 0.537242,0.56302 0.479725,-0.60164 -0.03163,-0.64056 -0.06821,-1.95468 -0.08134,-2.91992 -0.02372,-1.73545 -0.02146,-1.75713 0.214974,-1.94949 0.309249,-0.25161 0.868026,-0.25217 1.119136,-0.001 0.24323,0.24324 0.291286,0.75569 0.362981,3.85777 0.103939,4.49492 -0.02019,4.00172 1.482796,5.88346 0.718718,0.89978 1.793469,2.29792 2.388342,3.10708 0.594886,0.80917 1.092488,1.42996 1.105763,1.37979 0.0127,-0.0503 0.142543,-1.20774 0.287416,-2.57242 0.144874,-1.36467 0.285723,-2.58473 0.312836,-2.71149 0.13472,-0.62997 0.921053,-0.84512 1.36433,-0.37327 0.299801,0.31913 0.305069,0.1687 -0.158995,4.40308 -0.255065,2.32737 -0.339497,3.43756 -0.27266,3.58406 0.05324,0.11678 0.404103,0.68532 0.779526,1.26369 0.682581,1.05164 0.682666,1.05167 0.925797,0.75961 0.573211,-0.68854 1.473674,-2.98854 1.799771,-4.5964 0.418644,-2.06428 0.461254,-4.45519 0.114668,-6.43085 -0.356654,-2.03321 -1.146592,-4.4547 -2.048381,-6.27908 -0.501883,-1.01533 -1.48459,-2.78505 -1.546669,-2.78529 -0.02895,-1.3e-4 -0.03799,0.48594 -0.02033,1.07997 0.04011,1.34665 -0.0014,1.51842 -0.426161,1.72045 -0.292078,0.13924 -0.377231,0.14225 -0.626703,0.0223 -0.317355,-0.15254 -0.292839,-0.11114 -1.135968,-1.91103 -1.662705,-3.54932 -4.164911,-6.46706 -7.339486,-8.55821 -0.321125,-0.21153 -0.60607,-0.36231 -0.633241,-0.33515 -0.02711,0.0272 0.04194,0.31451 0.153503,0.63872 0.262647,0.76338 0.256659,1.08155 -0.025,1.33513 -0.508985,0.45816 -0.72465,0.4064 -1.747223,-0.41963 -1.489446,-1.20318 -3.766934,-2.43204 -5.817869,-3.13936 -1.118487,-0.38574 -3.444553,-1.00352 -3.51471,-0.93336 z"
       inkscape:export-filename="mintLogo.png"
       inkscape:export-xdpi="96"
       inkscape:export-ydpi="96" /></g></svg>
